# xmcd CD database file
#
# Track frame offsets:
#	151
#	10709
#	24142
#	38311
#	53684
#	68845
#	86152
#	95829
#	111987
#	124249
#
# Disc length: 1792 seconds
#
# Revision: 0
# Processed by: cddbd v1.4PL0 Copyright (c) Steve Scherf et al.
# Submitted via: CDex 1.40Beta9
#
DISCID=7506fe0a
DTITLE=Matthew Taylor Frampton - Matthew Taylor Frampton
DYEAR=2001
DGENRE=Country
TTITLE0=I'm So Blue
TTITLE1=For the First Time
TTITLE2=Tonight
TTITLE3=She Moved Back to Georgia
TTITLE4=You Made My Beer Get Warm
TTITLE5=Sam
TTITLE6=For Crying Out Loud (I Gotta Know Now)
TTITLE7=Trying Not to Love You
TTITLE8=Mama Baby Take Me Home
TTITLE9=What I'm Living For
EXTD=YEAR: 2001 ID3G: 2
EXTT0=
EXTT1=
EXTT2=
EXTT3=
EXTT4=
EXTT5=
EXTT6=
EXTT7=
EXTT8=
EXTT9=
PLAYORDER=
